<?xml version="1.0" encoding="UTF-8" standalone="no"?>
<!DOCTYPE svg PUBLIC "-//W3C//DTD SVG 1.1//EN"
 "http://www.w3.org/Graphics/SVG/1.1/DTD/svg11.dtd">
<!-- Generated by graphviz version 2.40.1 (20161225.0304)
 -->
<!-- Title: %3 Pages: 1 -->
<svg width="271pt" height="212pt"
 viewBox="0.00 0.00 270.78 212.00" xmlns="http://www.w3.org/2000/svg" xmlns:xlink="http://www.w3.org/1999/xlink">
<g id="graph0" class="graph" transform="scale(1 1) rotate(0) translate(4 208)">
<title>%3</title>
<polygon fill="#ffffff" stroke="transparent" points="-4,4 -4,-208 266.7752,-208 266.7752,4 -4,4"/>
<!-- fake -->
<g id="node1" class="node">
<title>fake</title>
</g>
<!-- 0 -->
<g id="node2" class="node">
<title>0</title>
<ellipse fill="none" stroke="#000000" cx="86.7752" cy="-109" rx="18" ry="18"/>
<ellipse fill="none" stroke="#000000" cx="86.7752" cy="-109" rx="22" ry="22"/>
<text text-anchor="middle" x="86.7752" y="-105.3" font-family="Times,serif" font-size="14.00" fill="#000000">0</text>
</g>
<!-- fake&#45;&gt;0 -->
<g id="edge1" class="edge">
<title>fake&#45;&gt;0</title>
<path fill="none" stroke="#000000" stroke-width="2" d="M86.7752,-167.7521C86.7752,-159.8888 86.7752,-150.4498 86.7752,-141.4612"/>
<polygon fill="#000000" stroke="#000000" stroke-width="2" points="90.2753,-141.2376 86.7752,-131.2377 83.2753,-141.2377 90.2753,-141.2376"/>
</g>
<!-- 0&#45;&gt;0 -->
<g id="edge3" class="edge">
<title>0&#45;&gt;0</title>
<path fill="none" stroke="#000000" d="M107.766,-116.3169C117.8625,-117.2202 126.7752,-114.7813 126.7752,-109 126.7752,-105.2964 123.1174,-102.9644 117.8339,-102.0042"/>
<polygon fill="#000000" stroke="#000000" points="117.8725,-98.5037 107.766,-101.6831 117.6493,-105.5002 117.8725,-98.5037"/>
<text text-anchor="middle" x="194.7752" y="-105.3" font-family="Times,serif" font-size="14.00" fill="#000000">~a | ~p1 | (c &amp; p2)</text>
</g>
<!-- 1 -->
<g id="node3" class="node">
<title>1</title>
<ellipse fill="none" stroke="#000000" cx="86.7752" cy="-18" rx="27" ry="18"/>
<text text-anchor="middle" x="86.7752" y="-14.3" font-family="Times,serif" font-size="14.00" fill="#000000">1</text>
</g>
<!-- 0&#45;&gt;1 -->
<g id="edge2" class="edge">
<title>0&#45;&gt;1</title>
<path fill="none" stroke="#000000" d="M65.1572,-104.3395C35.2076,-96.8211 -13.3917,-80.1581 3.7752,-54 14.149,-38.193 33.1184,-29.2917 50.3063,-24.2967"/>
<polygon fill="#000000" stroke="#000000" points="51.3191,-27.6505 60.1419,-21.7845 49.5867,-20.8682 51.3191,-27.6505"/>
<text text-anchor="middle" x="76.2752" y="-57.8" font-family="Times,serif" font-size="14.00" fill="#000000">a &amp; p1 &amp; (~c | ~p2)</text>
</g>
<!-- 1&#45;&gt;0 -->
<g id="edge4" class="edge">
<title>1&#45;&gt;0</title>
<path fill="none" stroke="#000000" d="M111.4972,-25.5151C125.0836,-31.0524 140.7642,-40.0848 148.7752,-54 159.2964,-72.2753 137.4519,-87.6514 116.8509,-97.4584"/>
<polygon fill="#000000" stroke="#000000" points="115.3169,-94.3099 107.5938,-101.5628 118.1542,-100.7091 115.3169,-94.3099"/>
<text text-anchor="middle" x="175.2752" y="-57.8" font-family="Times,serif" font-size="14.00" fill="#000000">c &amp; p2</text>
</g>
<!-- 1&#45;&gt;1 -->
<g id="edge5" class="edge">
<title>1&#45;&gt;1</title>
<path fill="none" stroke="#000000" d="M111.3077,-25.752C122.2831,-26.4902 131.7752,-23.9063 131.7752,-18 131.7752,-14.0317 127.4903,-11.5632 121.3496,-10.5944"/>
<polygon fill="#000000" stroke="#000000" points="121.4224,-7.0949 111.3077,-10.248 121.1811,-14.0908 121.4224,-7.0949"/>
<text text-anchor="middle" x="163.7752" y="-14.3" font-family="Times,serif" font-size="14.00" fill="#000000">~c | ~p2</text>
</g>
</g>
</svg>
