<?xml version="1.0" encoding="UTF-8" standalone="no"?>
<!DOCTYPE svg PUBLIC "-//W3C//DTD SVG 1.1//EN"
 "http://www.w3.org/Graphics/SVG/1.1/DTD/svg11.dtd">
<!-- Generated by graphviz version 2.40.1 (20161225.0304)
 -->
<!-- Title: %3 Pages: 1 -->
<svg width="211pt" height="212pt"
 viewBox="0.00 0.00 210.99 212.00" xmlns="http://www.w3.org/2000/svg" xmlns:xlink="http://www.w3.org/1999/xlink">
<g id="graph0" class="graph" transform="scale(1 1) rotate(0) translate(4 208)">
<title>%3</title>
<polygon fill="#ffffff" stroke="transparent" points="-4,4 -4,-208 206.9886,-208 206.9886,4 -4,4"/>
<!-- fake -->
<g id="node1" class="node">
<title>fake</title>
</g>
<!-- 0 -->
<g id="node2" class="node">
<title>0</title>
<ellipse fill="none" stroke="#000000" cx="66.9886" cy="-109" rx="18" ry="18"/>
<ellipse fill="none" stroke="#000000" cx="66.9886" cy="-109" rx="22" ry="22"/>
<text text-anchor="middle" x="66.9886" y="-105.3" font-family="Times,serif" font-size="14.00" fill="#000000">0</text>
</g>
<!-- fake&#45;&gt;0 -->
<g id="edge1" class="edge">
<title>fake&#45;&gt;0</title>
<path fill="none" stroke="#000000" stroke-width="2" d="M66.9886,-167.7521C66.9886,-159.8888 66.9886,-150.4498 66.9886,-141.4612"/>
<polygon fill="#000000" stroke="#000000" stroke-width="2" points="70.4887,-141.2376 66.9886,-131.2377 63.4887,-141.2377 70.4887,-141.2376"/>
</g>
<!-- 0&#45;&gt;0 -->
<g id="edge5" class="edge">
<title>0&#45;&gt;0</title>
<path fill="none" stroke="#000000" d="M87.9794,-116.3169C98.0759,-117.2202 106.9886,-114.7813 106.9886,-109 106.9886,-105.2964 103.3308,-102.9644 98.0473,-102.0042"/>
<polygon fill="#000000" stroke="#000000" points="98.0859,-98.5037 87.9794,-101.6831 97.8627,-105.5002 98.0859,-98.5037"/>
<text text-anchor="middle" x="154.9886" y="-105.3" font-family="Times,serif" font-size="14.00" fill="#000000">p2 | ~a | ~p1</text>
</g>
<!-- 1 -->
<g id="node3" class="node">
<title>1</title>
<ellipse fill="none" stroke="#000000" cx="66.9886" cy="-18" rx="27" ry="18"/>
<text text-anchor="middle" x="66.9886" y="-14.3" font-family="Times,serif" font-size="14.00" fill="#000000">1</text>
</g>
<!-- 0&#45;&gt;1 -->
<g id="edge4" class="edge">
<title>0&#45;&gt;1</title>
<path fill="none" stroke="#000000" d="M45.9165,-101.8281C22.7635,-92.6983 -9.5849,-75.4987 2.9886,-54 9.5754,-42.7376 21.1244,-34.7265 32.6153,-29.1671"/>
<polygon fill="#000000" stroke="#000000" points="34.3483,-32.2313 42.1438,-25.0563 31.5754,-25.804 34.3483,-32.2313"/>
<text text-anchor="middle" x="52.9886" y="-57.8" font-family="Times,serif" font-size="14.00" fill="#000000">a &amp; p1 &amp; ~p2</text>
</g>
<!-- 1&#45;&gt;0 -->
<g id="edge2" class="edge">
<title>1&#45;&gt;0</title>
<path fill="none" stroke="#000000" d="M87.0885,-30.3484C99.9438,-39.9624 113.1465,-54.1336 106.9886,-69 103.8176,-76.6556 98.3916,-83.61 92.5416,-89.4938"/>
<polygon fill="#000000" stroke="#000000" points="90.0639,-87.0167 85.0427,-96.3461 94.7859,-92.1842 90.0639,-87.0167"/>
<text text-anchor="middle" x="132.4886" y="-57.8" font-family="Times,serif" font-size="14.00" fill="#000000">a &amp; p2</text>
</g>
<!-- 1&#45;&gt;1 -->
<g id="edge3" class="edge">
<title>1&#45;&gt;1</title>
<path fill="none" stroke="#000000" d="M91.5211,-25.752C102.4964,-26.4902 111.9886,-23.9063 111.9886,-18 111.9886,-14.0317 107.7037,-11.5632 101.5629,-10.5944"/>
<polygon fill="#000000" stroke="#000000" points="101.6358,-7.0949 91.5211,-10.248 101.3945,-14.0908 101.6358,-7.0949"/>
<text text-anchor="middle" x="143.9886" y="-14.3" font-family="Times,serif" font-size="14.00" fill="#000000">~a | ~p2</text>
</g>
</g>
</svg>
