<?xml version="1.0" encoding="UTF-8" standalone="no"?>
<!DOCTYPE svg PUBLIC "-//W3C//DTD SVG 1.1//EN"
 "http://www.w3.org/Graphics/SVG/1.1/DTD/svg11.dtd">
<!-- Generated by graphviz version 2.40.1 (20161225.0304)
 -->
<!-- Title: %3 Pages: 1 -->
<svg width="537pt" height="394pt"
 viewBox="0.00 0.00 537.00 394.00" xmlns="http://www.w3.org/2000/svg" xmlns:xlink="http://www.w3.org/1999/xlink">
<g id="graph0" class="graph" transform="scale(1 1) rotate(0) translate(4 390)">
<title>%3</title>
<polygon fill="#ffffff" stroke="transparent" points="-4,4 -4,-390 533,-390 533,4 -4,4"/>
<!-- fake -->
<g id="node1" class="node">
<title>fake</title>
</g>
<!-- 1 -->
<g id="node3" class="node">
<title>1</title>
<ellipse fill="none" stroke="#000000" cx="260" cy="-291" rx="18" ry="18"/>
<ellipse fill="none" stroke="#000000" cx="260" cy="-291" rx="22" ry="22"/>
<text text-anchor="middle" x="260" y="-287.3" font-family="Times,serif" font-size="14.00" fill="#000000">1</text>
</g>
<!-- fake&#45;&gt;1 -->
<g id="edge1" class="edge">
<title>fake&#45;&gt;1</title>
<path fill="none" stroke="#000000" stroke-width="2" d="M260,-349.7521C260,-341.8888 260,-332.4498 260,-323.4612"/>
<polygon fill="#000000" stroke="#000000" stroke-width="2" points="263.5001,-323.2376 260,-313.2377 256.5001,-323.2377 263.5001,-323.2376"/>
</g>
<!-- 0 -->
<g id="node2" class="node">
<title>0</title>
<ellipse fill="none" stroke="#000000" cx="27" cy="-18" rx="27" ry="18"/>
<text text-anchor="middle" x="27" y="-14.3" font-family="Times,serif" font-size="14.00" fill="#000000">0</text>
</g>
<!-- 0&#45;&gt;0 -->
<g id="edge10" class="edge">
<title>0&#45;&gt;0</title>
<path fill="none" stroke="#000000" d="M51.5325,-25.752C62.5078,-26.4902 72,-23.9063 72,-18 72,-14.0317 67.7151,-11.5632 61.5743,-10.5944"/>
<polygon fill="#000000" stroke="#000000" points="61.6472,-7.0949 51.5325,-10.248 61.4059,-14.0908 61.6472,-7.0949"/>
<text text-anchor="middle" x="89" y="-14.3" font-family="Times,serif" font-size="14.00" fill="#000000">True</text>
</g>
<!-- 2 -->
<g id="node4" class="node">
<title>2</title>
<ellipse fill="none" stroke="#000000" cx="96" cy="-200" rx="27" ry="18"/>
<text text-anchor="middle" x="96" y="-196.3" font-family="Times,serif" font-size="14.00" fill="#000000">2</text>
</g>
<!-- 1&#45;&gt;2 -->
<g id="edge8" class="edge">
<title>1&#45;&gt;2</title>
<path fill="none" stroke="#000000" d="M240.543,-280.2038C212.1576,-264.4533 159.1547,-235.0431 125.8241,-216.5487"/>
<polygon fill="#000000" stroke="#000000" points="127.4239,-213.4338 116.9816,-211.6422 124.0275,-219.5546 127.4239,-213.4338"/>
<text text-anchor="middle" x="211.5" y="-239.8" font-family="Times,serif" font-size="14.00" fill="#000000">a &amp; p1</text>
</g>
<!-- 3 -->
<g id="node5" class="node">
<title>3</title>
<ellipse fill="none" stroke="#000000" cx="164" cy="-109" rx="18" ry="18"/>
<ellipse fill="none" stroke="#000000" cx="164" cy="-109" rx="22" ry="22"/>
<text text-anchor="middle" x="164" y="-105.3" font-family="Times,serif" font-size="14.00" fill="#000000">3</text>
</g>
<!-- 1&#45;&gt;3 -->
<g id="edge9" class="edge">
<title>1&#45;&gt;3</title>
<path fill="none" stroke="#000000" d="M277.9133,-277.8371C311.288,-251.7404 376.5953,-192.2323 342,-149 324.0995,-126.6306 242.6079,-115.9014 196.3406,-111.5318"/>
<polygon fill="#000000" stroke="#000000" points="196.4892,-108.0312 186.2165,-110.624 195.8639,-115.0032 196.4892,-108.0312"/>
<text text-anchor="middle" x="383" y="-196.3" font-family="Times,serif" font-size="14.00" fill="#000000">~a | ~p1</text>
</g>
<!-- 2&#45;&gt;0 -->
<g id="edge3" class="edge">
<title>2&#45;&gt;0</title>
<path fill="none" stroke="#000000" d="M72.0163,-191.3174C59.6915,-185.5461 45.6832,-176.6662 38,-164 16.1834,-128.0341 17.9763,-77.5568 21.9713,-46.3591"/>
<polygon fill="#000000" stroke="#000000" points="25.4754,-46.5812 23.4411,-36.1835 18.5473,-45.5804 25.4754,-46.5812"/>
<text text-anchor="middle" x="45.5" y="-105.3" font-family="Times,serif" font-size="14.00" fill="#000000">b | p2</text>
</g>
<!-- 2&#45;&gt;2 -->
<g id="edge4" class="edge">
<title>2&#45;&gt;2</title>
<path fill="none" stroke="#000000" d="M120.5325,-207.752C131.5078,-208.4902 141,-205.9063 141,-200 141,-196.0317 136.7151,-193.5632 130.5743,-192.5944"/>
<polygon fill="#000000" stroke="#000000" points="130.6472,-189.0949 120.5325,-192.248 130.4059,-196.0908 130.6472,-189.0949"/>
<text text-anchor="middle" x="212.5" y="-196.3" font-family="Times,serif" font-size="14.00" fill="#000000">a &amp; p1 &amp; ~b &amp; ~p2</text>
</g>
<!-- 2&#45;&gt;3 -->
<g id="edge2" class="edge">
<title>2&#45;&gt;3</title>
<path fill="none" stroke="#000000" d="M73.5145,-189.9943C55.0307,-180.3297 33.5983,-164.861 45,-149 55.344,-134.6104 100.564,-122.3616 132.1781,-115.3403"/>
<polygon fill="#000000" stroke="#000000" points="133.266,-118.6865 142.3077,-113.164 131.7956,-111.8426 133.266,-118.6865"/>
<text text-anchor="middle" x="129.5" y="-152.8" font-family="Times,serif" font-size="14.00" fill="#000000">~b &amp; ~p2 &amp; (~a | ~p1)</text>
</g>
<!-- 3&#45;&gt;0 -->
<g id="edge7" class="edge">
<title>3&#45;&gt;0</title>
<path fill="none" stroke="#000000" d="M145.5236,-96.7273C122.2943,-81.2976 82.1895,-54.6587 55.1384,-36.6905"/>
<polygon fill="#000000" stroke="#000000" points="56.7747,-33.5756 46.5082,-30.958 52.9016,-39.4065 56.7747,-33.5756"/>
<text text-anchor="middle" x="139.5" y="-57.8" font-family="Times,serif" font-size="14.00" fill="#000000">~b &amp; ~p2</text>
</g>
<!-- 3&#45;&gt;2 -->
<g id="edge5" class="edge">
<title>3&#45;&gt;2</title>
<path fill="none" stroke="#000000" d="M183.9573,-118.8088C202.8237,-129.4199 226.5168,-147.095 214,-164 204.1524,-177.3001 163.1969,-187.6609 132.2775,-193.7847"/>
<polygon fill="#000000" stroke="#000000" points="131.4046,-190.388 122.236,-195.6972 132.7143,-197.2644 131.4046,-190.388"/>
<text text-anchor="middle" x="277.5" y="-152.8" font-family="Times,serif" font-size="14.00" fill="#000000">a &amp; p1 &amp; (b | p2)</text>
</g>
<!-- 3&#45;&gt;3 -->
<g id="edge6" class="edge">
<title>3&#45;&gt;3</title>
<path fill="none" stroke="#000000" d="M184.5808,-117.3702C194.8447,-118.5284 204,-115.7383 204,-109 204,-104.6833 200.2427,-101.9869 194.8436,-100.9109"/>
<polygon fill="#000000" stroke="#000000" points="194.6729,-97.405 184.5808,-100.6298 194.4812,-104.4024 194.6729,-97.405"/>
<text text-anchor="middle" x="366.5" y="-105.3" font-family="Times,serif" font-size="14.00" fill="#000000">(b &amp; ~a) | (b &amp; ~p1) | (p2 &amp; ~a) | (p2 &amp; ~p1)</text>
</g>
</g>
</svg>
