<?xml version="1.0" encoding="UTF-8" standalone="no"?>
<!DOCTYPE svg PUBLIC "-//W3C//DTD SVG 1.1//EN"
 "http://www.w3.org/Graphics/SVG/1.1/DTD/svg11.dtd">
<!-- Generated by graphviz version 2.40.1 (20161225.0304)
 -->
<!-- Title: %3 Pages: 1 -->
<svg width="381pt" height="307pt"
 viewBox="0.00 0.00 381.00 307.00" xmlns="http://www.w3.org/2000/svg" xmlns:xlink="http://www.w3.org/1999/xlink">
<g id="graph0" class="graph" transform="scale(1 1) rotate(0) translate(4 303)">
<title>%3</title>
<polygon fill="#ffffff" stroke="transparent" points="-4,4 -4,-303 377,-303 377,4 -4,4"/>
<!-- fake -->
<g id="node1" class="node">
<title>fake</title>
</g>
<!-- 3 -->
<g id="node5" class="node">
<title>3</title>
<ellipse fill="none" stroke="#000000" cx="157" cy="-204" rx="18" ry="18"/>
<ellipse fill="none" stroke="#000000" cx="157" cy="-204" rx="22" ry="22"/>
<text text-anchor="middle" x="157" y="-200.3" font-family="Times,serif" font-size="14.00" fill="#000000">3</text>
</g>
<!-- fake&#45;&gt;3 -->
<g id="edge1" class="edge">
<title>fake&#45;&gt;3</title>
<path fill="none" stroke="#000000" stroke-width="2" d="M157,-262.7521C157,-254.8888 157,-245.4498 157,-236.4612"/>
<polygon fill="#000000" stroke="#000000" stroke-width="2" points="160.5001,-236.2376 157,-226.2377 153.5001,-236.2377 160.5001,-236.2376"/>
</g>
<!-- 0 -->
<g id="node2" class="node">
<title>0</title>
<ellipse fill="none" stroke="#000000" cx="27" cy="-113" rx="27" ry="18"/>
<text text-anchor="middle" x="27" y="-109.3" font-family="Times,serif" font-size="14.00" fill="#000000">0</text>
</g>
<!-- 0&#45;&gt;0 -->
<g id="edge4" class="edge">
<title>0&#45;&gt;0</title>
<path fill="none" stroke="#000000" d="M51.5325,-120.752C62.5078,-121.4902 72,-118.9063 72,-113 72,-109.0317 67.7151,-106.5632 61.5743,-105.5944"/>
<polygon fill="#000000" stroke="#000000" points="61.6472,-102.0949 51.5325,-105.248 61.4059,-109.0908 61.6472,-102.0949"/>
<text text-anchor="middle" x="96.5" y="-109.3" font-family="Times,serif" font-size="14.00" fill="#000000">~LMH</text>
</g>
<!-- 1 -->
<g id="node3" class="node">
<title>1</title>
<ellipse fill="none" stroke="#000000" cx="157" cy="-22" rx="18" ry="18"/>
<ellipse fill="none" stroke="#000000" cx="157" cy="-22" rx="22" ry="22"/>
<text text-anchor="middle" x="157" y="-18.3" font-family="Times,serif" font-size="14.00" fill="#000000">1</text>
</g>
<!-- 0&#45;&gt;1 -->
<g id="edge5" class="edge">
<title>0&#45;&gt;1</title>
<path fill="none" stroke="#000000" d="M45.6258,-99.9619C67.858,-84.3994 105.1928,-58.265 130.4445,-40.5888"/>
<polygon fill="#000000" stroke="#000000" points="132.6426,-43.3225 138.8279,-34.7205 128.6284,-37.5879 132.6426,-43.3225"/>
<text text-anchor="middle" x="117.5" y="-65.8" font-family="Times,serif" font-size="14.00" fill="#000000">LMH</text>
</g>
<!-- 1&#45;&gt;1 -->
<g id="edge10" class="edge">
<title>1&#45;&gt;1</title>
<path fill="none" stroke="#000000" d="M177.5808,-30.3702C187.8447,-31.5284 197,-28.7383 197,-22 197,-17.6833 193.2427,-14.9869 187.8436,-13.9109"/>
<polygon fill="#000000" stroke="#000000" points="187.6729,-10.405 177.5808,-13.6298 187.4812,-17.4024 187.6729,-10.405"/>
<text text-anchor="middle" x="214" y="-18.3" font-family="Times,serif" font-size="14.00" fill="#000000">True</text>
</g>
<!-- 2 -->
<g id="node4" class="node">
<title>2</title>
<ellipse fill="none" stroke="#000000" cx="288" cy="-113" rx="27" ry="18"/>
<text text-anchor="middle" x="288" y="-109.3" font-family="Times,serif" font-size="14.00" fill="#000000">2</text>
</g>
<!-- 2&#45;&gt;1 -->
<g id="edge3" class="edge">
<title>2&#45;&gt;1</title>
<path fill="none" stroke="#000000" d="M269.2309,-99.9619C246.8277,-84.3994 209.2057,-58.265 183.7598,-40.5888"/>
<polygon fill="#000000" stroke="#000000" points="185.5216,-37.5512 175.3119,-34.7205 181.528,-43.3002 185.5216,-37.5512"/>
<text text-anchor="middle" x="248" y="-65.8" font-family="Times,serif" font-size="14.00" fill="#000000">LIC</text>
</g>
<!-- 2&#45;&gt;2 -->
<g id="edge2" class="edge">
<title>2&#45;&gt;2</title>
<path fill="none" stroke="#000000" d="M312.5325,-120.752C323.5078,-121.4902 333,-118.9063 333,-113 333,-109.0317 328.7151,-106.5632 322.5743,-105.5944"/>
<polygon fill="#000000" stroke="#000000" points="322.6472,-102.0949 312.5325,-105.248 322.4059,-109.0908 322.6472,-102.0949"/>
<text text-anchor="middle" x="353" y="-109.3" font-family="Times,serif" font-size="14.00" fill="#000000">~LIC</text>
</g>
<!-- 3&#45;&gt;0 -->
<g id="edge9" class="edge">
<title>3&#45;&gt;0</title>
<path fill="none" stroke="#000000" d="M135.0742,-201.7809C110.0657,-198.1208 69.482,-188.5735 45,-164 38.781,-157.7578 34.7027,-149.2387 32.0313,-140.951"/>
<polygon fill="#000000" stroke="#000000" points="35.3713,-139.8913 29.4212,-131.125 28.6059,-141.6884 35.3713,-139.8913"/>
<text text-anchor="middle" x="94" y="-152.8" font-family="Times,serif" font-size="14.00" fill="#000000">LIC &amp; ~LMH</text>
</g>
<!-- 3&#45;&gt;1 -->
<g id="edge7" class="edge">
<title>3&#45;&gt;1</title>
<path fill="none" stroke="#000000" d="M157,-181.6832C157,-149.8044 157,-91.0401 157,-54.3781"/>
<polygon fill="#000000" stroke="#000000" points="160.5001,-54.2143 157,-44.2144 153.5001,-54.2144 160.5001,-54.2143"/>
<text text-anchor="middle" x="200" y="-109.3" font-family="Times,serif" font-size="14.00" fill="#000000">LIC &amp; LMH</text>
</g>
<!-- 3&#45;&gt;2 -->
<g id="edge6" class="edge">
<title>3&#45;&gt;2</title>
<path fill="none" stroke="#000000" d="M175.215,-191.3468C197.3517,-175.9694 234.9174,-149.8741 260.5624,-132.0597"/>
<polygon fill="#000000" stroke="#000000" points="262.8753,-134.7147 269.0914,-126.135 258.8817,-128.9657 262.8753,-134.7147"/>
<text text-anchor="middle" x="283" y="-152.8" font-family="Times,serif" font-size="14.00" fill="#000000">LMH &amp; ~LIC</text>
</g>
<!-- 3&#45;&gt;3 -->
<g id="edge8" class="edge">
<title>3&#45;&gt;3</title>
<path fill="none" stroke="#000000" d="M177.9908,-211.3169C188.0872,-212.2202 197,-209.7813 197,-204 197,-200.2964 193.3422,-197.9644 188.0587,-197.0042"/>
<polygon fill="#000000" stroke="#000000" points="188.0973,-193.5037 177.9908,-196.6831 187.8741,-200.5002 188.0973,-193.5037"/>
<text text-anchor="middle" x="252" y="-200.3" font-family="Times,serif" font-size="14.00" fill="#000000">~LIC &amp; ~LMH</text>
</g>
</g>
</svg>
