<?xml version="1.0" encoding="UTF-8" standalone="no"?>
<!DOCTYPE svg PUBLIC "-//W3C//DTD SVG 1.1//EN"
 "http://www.w3.org/Graphics/SVG/1.1/DTD/svg11.dtd">
<!-- Generated by graphviz version 2.40.1 (20161225.0304)
 -->
<!-- Title: %3 Pages: 1 -->
<svg width="603pt" height="315pt"
 viewBox="0.00 0.00 602.79 315.00" xmlns="http://www.w3.org/2000/svg" xmlns:xlink="http://www.w3.org/1999/xlink">
<g id="graph0" class="graph" transform="scale(1 1) rotate(0) translate(4 311)">
<title>%3</title>
<polygon fill="#ffffff" stroke="transparent" points="-4,4 -4,-311 598.7886,-311 598.7886,4 -4,4"/>
<!-- fake -->
<g id="node1" class="node">
<title>fake</title>
</g>
<!-- 1 -->
<g id="node3" class="node">
<title>1</title>
<ellipse fill="none" stroke="#000000" cx="197.7886" cy="-212" rx="18" ry="18"/>
<ellipse fill="none" stroke="#000000" cx="197.7886" cy="-212" rx="22" ry="22"/>
<text text-anchor="middle" x="197.7886" y="-208.3" font-family="Times,serif" font-size="14.00" fill="#000000">1</text>
</g>
<!-- fake&#45;&gt;1 -->
<g id="edge1" class="edge">
<title>fake&#45;&gt;1</title>
<path fill="none" stroke="#000000" stroke-width="2" d="M197.7886,-270.7521C197.7886,-262.8888 197.7886,-253.4498 197.7886,-244.4612"/>
<polygon fill="#000000" stroke="#000000" stroke-width="2" points="201.2887,-244.2376 197.7886,-234.2377 194.2887,-244.2377 201.2887,-244.2376"/>
</g>
<!-- 0 -->
<g id="node2" class="node">
<title>0</title>
<ellipse fill="none" stroke="#000000" cx="126.7886" cy="-22" rx="18" ry="18"/>
<ellipse fill="none" stroke="#000000" cx="126.7886" cy="-22" rx="22" ry="22"/>
<text text-anchor="middle" x="126.7886" y="-18.3" font-family="Times,serif" font-size="14.00" fill="#000000">0</text>
</g>
<!-- 0&#45;&gt;0 -->
<g id="edge14" class="edge">
<title>0&#45;&gt;0</title>
<path fill="none" stroke="#000000" d="M147.3694,-30.3702C157.6333,-31.5284 166.7886,-28.7383 166.7886,-22 166.7886,-17.6833 163.0313,-14.9869 157.6322,-13.9109"/>
<polygon fill="#000000" stroke="#000000" points="157.4615,-10.405 147.3694,-13.6298 157.2698,-17.4024 157.4615,-10.405"/>
<text text-anchor="middle" x="183.7886" y="-18.3" font-family="Times,serif" font-size="14.00" fill="#000000">True</text>
</g>
<!-- 1&#45;&gt;0 -->
<g id="edge4" class="edge">
<title>1&#45;&gt;0</title>
<path fill="none" stroke="#000000" d="M176.3188,-206.9983C130.8687,-195.9268 27.4812,-168.0215 7.7886,-139 -3.1916,-122.8181 -1.7626,-112.0644 7.7886,-95 26.4259,-61.7025 67.147,-41.7507 95.7405,-31.3232"/>
<polygon fill="#000000" stroke="#000000" points="96.9819,-34.5974 105.2924,-28.0258 94.6977,-27.9806 96.9819,-34.5974"/>
<text text-anchor="middle" x="58.7886" y="-113.3" font-family="Times,serif" font-size="14.00" fill="#000000">SQ | (G &amp; QR)</text>
</g>
<!-- 1&#45;&gt;1 -->
<g id="edge5" class="edge">
<title>1&#45;&gt;1</title>
<path fill="none" stroke="#000000" d="M218.7794,-219.3169C228.8759,-220.2202 237.7886,-217.7813 237.7886,-212 237.7886,-208.2964 234.1308,-205.9644 228.8473,-205.0042"/>
<polygon fill="#000000" stroke="#000000" points="228.8859,-201.5037 218.7794,-204.6831 228.6627,-208.5002 228.8859,-201.5037"/>
<text text-anchor="middle" x="332.7886" y="-208.3" font-family="Times,serif" font-size="14.00" fill="#000000">QR &amp; ~G &amp; ~RQR &amp; ~SQ</text>
</g>
<!-- 2 -->
<g id="node4" class="node">
<title>2</title>
<ellipse fill="none" stroke="#000000" cx="293.7886" cy="-117" rx="27" ry="18"/>
<text text-anchor="middle" x="293.7886" y="-113.3" font-family="Times,serif" font-size="14.00" fill="#000000">2</text>
</g>
<!-- 1&#45;&gt;2 -->
<g id="edge6" class="edge">
<title>1&#45;&gt;2</title>
<path fill="none" stroke="#000000" d="M219.201,-206.286C237.0223,-200.4695 261.8175,-189.7406 276.7886,-172 283.2263,-164.3715 287.2283,-154.3239 289.7153,-144.906"/>
<polygon fill="#000000" stroke="#000000" points="293.1474,-145.5945 291.8629,-135.0778 286.3087,-144.1001 293.1474,-145.5945"/>
<text text-anchor="middle" x="363.2886" y="-160.8" font-family="Times,serif" font-size="14.00" fill="#000000">~QR &amp; ~RQR &amp; ~SQ</text>
</g>
<!-- 3 -->
<g id="node5" class="node">
<title>3</title>
<ellipse fill="none" stroke="#000000" cx="308.7886" cy="-22" rx="27" ry="18"/>
<text text-anchor="middle" x="308.7886" y="-18.3" font-family="Times,serif" font-size="14.00" fill="#000000">3</text>
</g>
<!-- 1&#45;&gt;3 -->
<g id="edge3" class="edge">
<title>1&#45;&gt;3</title>
<path fill="none" stroke="#000000" d="M219.8757,-209.9783C277.7462,-204.47 430.3918,-188.5018 445.7886,-172 452.2661,-165.0577 449.7274,-96.6739 448.7886,-95 427.5237,-57.0834 378.8759,-38.1294 344.9342,-29.195"/>
<polygon fill="#000000" stroke="#000000" points="345.4656,-25.7216 334.9193,-26.7341 343.7952,-32.5194 345.4656,-25.7216"/>
<text text-anchor="middle" x="522.2886" y="-113.3" font-family="Times,serif" font-size="14.00" fill="#000000">RQR &amp; ~QR &amp; ~SQ</text>
</g>
<!-- 4 -->
<g id="node6" class="node">
<title>4</title>
<ellipse fill="none" stroke="#000000" cx="140.7886" cy="-117" rx="18" ry="18"/>
<ellipse fill="none" stroke="#000000" cx="140.7886" cy="-117" rx="22" ry="22"/>
<text text-anchor="middle" x="140.7886" y="-113.3" font-family="Times,serif" font-size="14.00" fill="#000000">4</text>
</g>
<!-- 1&#45;&gt;4 -->
<g id="edge2" class="edge">
<title>1&#45;&gt;4</title>
<path fill="none" stroke="#000000" d="M175.6373,-210.0428C152.0749,-206.6445 115.8923,-197.3576 98.7886,-172 90.1095,-159.1324 100.8857,-145.2455 113.6917,-134.6449"/>
<polygon fill="#000000" stroke="#000000" points="115.9254,-137.3435 121.7717,-128.5077 111.6914,-131.7691 115.9254,-137.3435"/>
<text text-anchor="middle" x="187.7886" y="-160.8" font-family="Times,serif" font-size="14.00" fill="#000000">QR &amp; RQR &amp; ~G &amp; ~SQ</text>
</g>
<!-- 2&#45;&gt;0 -->
<g id="edge11" class="edge">
<title>2&#45;&gt;0</title>
<path fill="none" stroke="#000000" d="M281.762,-100.5302C272.1447,-88.394 257.6777,-72.2762 241.7886,-62 216.007,-45.3259 182.4603,-34.6961 158.2598,-28.6194"/>
<polygon fill="#000000" stroke="#000000" points="159.0499,-25.2098 148.5102,-26.2896 157.4228,-32.0181 159.0499,-25.2098"/>
<text text-anchor="middle" x="269.7886" y="-65.8" font-family="Times,serif" font-size="14.00" fill="#000000">SQ</text>
</g>
<!-- 2&#45;&gt;2 -->
<g id="edge10" class="edge">
<title>2&#45;&gt;2</title>
<path fill="none" stroke="#000000" d="M317.863,-125.4544C329.0309,-126.3767 338.7886,-123.5586 338.7886,-117 338.7886,-112.5934 334.3838,-109.8754 328.106,-108.8458"/>
<polygon fill="#000000" stroke="#000000" points="327.9612,-105.3402 317.863,-108.5456 327.7561,-112.3372 327.9612,-105.3402"/>
<text text-anchor="middle" x="389.2886" y="-113.3" font-family="Times,serif" font-size="14.00" fill="#000000">~RQR &amp; ~SQ</text>
</g>
<!-- 2&#45;&gt;3 -->
<g id="edge12" class="edge">
<title>2&#45;&gt;3</title>
<path fill="none" stroke="#000000" d="M296.6808,-98.683C298.8527,-84.9273 301.8665,-65.8403 304.3438,-50.1506"/>
<polygon fill="#000000" stroke="#000000" points="307.8537,-50.3621 305.9562,-39.9385 300.9393,-49.2703 307.8537,-50.3621"/>
<text text-anchor="middle" x="346.2886" y="-65.8" font-family="Times,serif" font-size="14.00" fill="#000000">RQR &amp; ~SQ</text>
</g>
<!-- 3&#45;&gt;3 -->
<g id="edge13" class="edge">
<title>3&#45;&gt;3</title>
<path fill="none" stroke="#000000" d="M332.863,-30.4544C344.0309,-31.3767 353.7886,-28.5586 353.7886,-22 353.7886,-17.5934 349.3838,-14.8754 343.106,-13.8458"/>
<polygon fill="#000000" stroke="#000000" points="342.9612,-10.3402 332.863,-13.5456 342.7561,-17.3372 342.9612,-10.3402"/>
<text text-anchor="middle" x="370.7886" y="-18.3" font-family="Times,serif" font-size="14.00" fill="#000000">True</text>
</g>
<!-- 4&#45;&gt;0 -->
<g id="edge8" class="edge">
<title>4&#45;&gt;0</title>
<path fill="none" stroke="#000000" d="M132.7144,-96.1178C130.7201,-90.0441 128.8517,-83.3372 127.7886,-77 126.5644,-69.7021 125.9896,-61.7833 125.7833,-54.2881"/>
<polygon fill="#000000" stroke="#000000" points="129.2818,-54.0567 125.7078,-44.0829 122.282,-54.1086 129.2818,-54.0567"/>
<text text-anchor="middle" x="155.7886" y="-65.8" font-family="Times,serif" font-size="14.00" fill="#000000">G &amp; QR</text>
</g>
<!-- 4&#45;&gt;3 -->
<g id="edge9" class="edge">
<title>4&#45;&gt;3</title>
<path fill="none" stroke="#000000" d="M157.0987,-101.9772C173.714,-86.7638 197.7385,-65.0495 202.7886,-62 225.0284,-48.5707 252.5363,-38.351 273.956,-31.6038"/>
<polygon fill="#000000" stroke="#000000" points="275.0814,-34.9199 283.6296,-28.6605 273.0438,-28.223 275.0814,-34.9199"/>
<text text-anchor="middle" x="220.2886" y="-65.8" font-family="Times,serif" font-size="14.00" fill="#000000">~QR</text>
</g>
<!-- 4&#45;&gt;4 -->
<g id="edge7" class="edge">
<title>4&#45;&gt;4</title>
<path fill="none" stroke="#000000" d="M161.3694,-125.3702C171.6333,-126.5284 180.7886,-123.7383 180.7886,-117 180.7886,-112.6833 177.0313,-109.9869 171.6322,-108.9109"/>
<polygon fill="#000000" stroke="#000000" points="171.4615,-105.405 161.3694,-108.6298 171.2698,-112.4024 171.4615,-105.405"/>
<text text-anchor="middle" x="214.7886" y="-113.3" font-family="Times,serif" font-size="14.00" fill="#000000">QR &amp; ~G</text>
</g>
</g>
</svg>
